# Blender 3.6.0
# www.blender.org
mtllib piou.mtl
o Cube
v 1.000000 1.000000 -1.000000
v 1.000000 -1.000000 -1.000000
v 1.000000 1.000000 1.000000
v 1.000000 -1.000000 1.000000
v -1.000000 1.000000 -1.000000
v -1.000000 -1.000000 -1.000000
v -1.000000 1.000000 1.000000
v -1.000000 -1.000000 1.000000
v 1.000000 4.938020 -1.000000
v 1.000000 4.938020 1.000000
v -1.000000 4.938020 -1.000000
v -1.000000 4.938020 1.000000
v 1.000000 6.941641 -1.000000
v 1.000000 6.941641 1.000000
v -1.000000 6.941641 -1.000000
v -1.000000 6.941641 1.000000
v 1.000000 4.938020 -3.662179
v -1.000000 4.938020 -3.662179
v 1.000000 6.941641 -3.662179
v -1.000000 6.941641 -3.662179
v 1.000000 4.938020 -4.874392
v -1.000000 4.938020 -4.874392
v 1.000000 6.941641 -4.874392
v -1.000000 6.941641 -4.874392
v -0.860729 5.061859 -4.626584
v 1.000000 2.773348 -3.662179
v -1.000000 2.773348 -3.662179
v 1.000000 2.773348 -4.874392
v -1.000000 2.773348 -4.874392
v 1.000000 2.088624 -3.662179
v -1.000000 2.088624 -3.662179
v 1.000000 2.088624 -4.874392
v -1.000000 2.088624 -4.874392
v 1.000000 2.773348 -1.023860
v -1.000000 2.773348 -1.023860
v 1.000000 2.088624 -1.023860
v -1.000000 2.088624 -1.023860
v 1.000000 -1.137038 -1.000000
v 1.000000 -1.137038 1.000000
v -1.000000 -1.137038 -1.000000
v -1.000000 -1.137038 1.000000
v 1.000000 -1.000000 -5.625918
v -1.000000 -1.000000 -5.625918
v 1.000000 -1.137038 -5.625918
v -1.000000 -1.137038 -5.625918
v 1.000000 -1.000000 -7.052374
v -1.000000 -1.000000 -7.052374
v 1.000000 -1.137038 -7.052374
v -1.000000 -1.137038 -7.052374
v 1.000000 7.039166 -5.625918
v -1.000000 7.039166 -5.625918
v 1.000000 7.039166 -7.052374
v -1.000000 7.039166 -7.052374
v 1.000000 -1.000000 -8.888899
v -1.000000 -1.000000 -8.888899
v 1.000000 -1.137038 -8.888899
v -1.000000 -1.137038 -8.888899
v 1.000000 -1.000000 -10.020476
v -1.000000 -1.000000 -10.020476
v 1.000000 -1.137038 -10.020476
v -1.000000 -1.137038 -10.020476
v 1.000000 0.073511 -8.888899
v -1.000000 0.073511 -8.888899
v 1.000000 0.073511 -10.020476
v -1.000000 0.073511 -10.020476
v -1.000000 -0.063527 -10.020476
v 1.000000 7.007622 -8.888899
v -1.000000 7.007622 -8.888899
v 1.000000 7.007622 -10.020476
v -1.000000 7.007622 -10.020476
v -1.000000 6.870584 -10.020476
v 1.000000 -1.000000 -12.095675
v -1.000000 -1.000000 -12.095675
v 1.000000 0.073511 -12.095675
v -1.000000 0.073511 -12.095675
v 1.000000 -1.000000 -12.976391
v -1.000000 -1.000000 -12.976391
v 1.000000 0.073511 -12.976391
v -1.000000 0.073511 -12.976391
v 1.000000 6.816844 -12.095675
v -1.000000 6.816844 -12.095675
v 1.000000 6.816844 -12.976391
v -1.000000 6.816844 -12.976391
v 1.000000 -1.000000 -14.408167
v -1.000000 -1.000000 -14.408167
v 1.000000 -1.137038 -14.408167
v -1.000000 -1.137038 -14.408167
v 1.000000 -1.000000 -15.535871
v -1.000000 -1.000000 -15.535871
v 1.000000 -1.137038 -15.535871
v -1.000000 -1.137038 -15.535871
v 1.000000 0.068513 -14.408167
v -1.000000 0.068513 -14.408167
v 1.000000 0.068513 -15.535871
v -1.000000 0.068513 -15.535871
v 1.000000 5.721309 -14.408167
v -1.000000 5.721309 -14.408167
v 1.000000 5.721309 -15.535871
v -1.000000 5.721309 -15.535871
v 1.000000 6.872033 -14.408167
v -1.000000 6.872033 -14.408167
v 1.000000 6.872033 -15.535871
v -1.000000 6.872033 -15.535871
v 1.000000 -1.000000 -17.900307
v -1.000000 -1.000000 -17.900307
v 1.000000 0.068513 -17.900307
v -1.000000 0.068513 -17.900307
v 1.000000 -1.000000 -18.977476
v -1.000000 -1.000000 -18.977476
v 1.000000 0.068513 -18.977476
v -1.000000 0.068513 -18.977476
v 1.000000 6.738558 -17.900307
v -1.000000 6.738558 -17.900307
v 1.000000 6.738558 -18.977476
v -1.000000 6.738558 -18.977476
v 1.000000 7.755552 -12.095675
v -1.000000 7.755552 -12.095675
v 1.000000 7.755552 -12.976391
v -1.000000 7.755552 -12.976391
v 1.000000 6.816844 -8.925511
v -1.000000 6.816844 -8.925511
v 1.000000 7.755552 -8.925511
v -1.000000 7.755552 -8.925511
vn -1.0000 -0.0000 -0.0000
vn -0.0000 -0.0000 1.0000
vn 1.0000 -0.0000 -0.0000
vn -0.0000 -0.0000 -1.0000
vn -0.0000 -1.0000 -0.0000
vn -0.0000 1.0000 -0.0000
vt 0.625000 0.250000
vt 0.625000 0.000000
vt 0.375000 0.750000
vt 0.625000 0.750000
vt 0.625000 1.000000
vt 0.375000 1.000000
vt 0.375000 0.000000
vt 0.375000 0.250000
vt 0.375000 0.500000
vt 0.625000 0.500000
vt 0.875000 0.500000
vt 0.875000 0.750000
vt 0.125000 0.500000
vt 0.125000 0.750000
s 0
usemtl Material
f 5/1/1 7/2/1 12/2/1 11/1/1
f 4/3/2 3/4/2 7/5/2 8/6/2
f 8/7/1 7/2/1 5/1/1 6/8/1
f 4/3/2 8/6/2 41/6/2 39/3/2
f 2/9/3 1/10/3 3/4/3 4/3/3
f 6/8/4 5/1/4 1/10/4 2/9/4
f 9/10/5 11/1/5 18/1/5 17/10/5
f 3/4/3 1/10/3 9/10/3 10/4/3
f 1/10/4 5/1/4 11/1/4 9/10/4
f 7/5/2 3/4/2 10/4/2 12/5/2
f 13/10/6 15/11/6 16/12/6 14/4/6
f 10/4/3 9/10/3 13/10/3 14/4/3
f 11/1/1 12/2/1 16/2/1 15/1/1
f 12/5/2 10/4/2 14/4/2 16/5/2
f 19/10/3 17/10/3 21/10/3 23/10/3
f 11/1/1 15/1/1 20/1/1 18/1/1
f 13/10/3 9/10/3 17/10/3 19/10/3
f 15/11/6 13/10/6 19/10/6 20/11/6
f 21/10/4 22/1/4 24/1/4 23/10/4
f 20/11/6 19/10/6 23/10/6 24/11/6
f 18/1/1 20/1/1 24/1/1 22/1/1
f 21/10/3 17/10/3 26/10/3 28/10/3
f 28/10/3 26/10/3 30/10/3 32/10/3
f 22/1/4 21/10/4 28/10/4 29/1/4
f 18/1/1 22/1/1 29/1/1 27/1/1
f 17/10/2 18/1/2 27/1/2 26/10/2
f 30/10/5 31/1/5 33/1/5 32/10/5
f 27/1/1 31/1/1 37/1/1 35/1/1
f 27/1/1 29/1/1 33/1/1 31/1/1
f 29/1/4 28/10/4 32/10/4 33/1/4
f 34/10/2 35/1/2 37/1/2 36/10/2
f 30/10/3 26/10/3 34/10/3 36/10/3
f 31/1/5 30/10/5 36/10/5 37/1/5
f 26/10/6 27/1/6 35/1/6 34/10/6
f 40/13/5 38/9/5 39/3/5 41/14/5
f 8/7/1 6/8/1 40/8/1 41/7/1
f 2/9/3 4/3/3 39/3/3 38/9/3
f 6/8/6 2/9/6 42/9/6 43/8/6
f 42/9/3 44/9/3 48/9/3 46/9/3
f 2/9/3 38/9/3 44/9/3 42/9/3
f 38/9/5 40/13/5 45/13/5 44/9/5
f 40/8/1 6/8/1 43/8/1 45/8/1
f 49/8/1 47/8/1 55/8/1 57/8/1
f 44/9/5 45/13/5 49/13/5 48/9/5
f 45/8/1 43/8/1 47/8/1 49/8/1
f 46/9/4 47/8/4 53/8/4 52/9/4
f 51/8/6 50/9/6 52/9/6 53/8/6
f 47/8/1 43/8/1 51/8/1 53/8/1
f 42/9/3 46/9/3 52/9/3 50/9/3
f 43/8/2 42/9/2 50/9/2 51/8/2
f 56/9/5 57/13/5 61/13/5 60/9/5
f 47/8/6 46/9/6 54/9/6 55/8/6
f 46/9/3 48/9/3 56/9/3 54/9/3
f 48/9/5 49/13/5 57/13/5 56/9/5
f 61/8/1 59/8/1 85/8/1 87/8/1
f 57/8/1 55/8/1 59/8/1 61/8/1
f 61/8/6 59/8/6 65/8/6 66/8/6
f 54/9/3 56/9/3 60/9/3 58/9/3
f 64/9/4 65/8/4 70/8/4 69/9/4
f 65/8/6 64/9/6 74/9/6 75/8/6
f 54/9/3 58/9/3 64/9/3 62/9/3
f 55/8/2 54/9/2 62/9/2 63/8/2
f 59/8/1 55/8/1 63/8/1 65/8/1
f 68/8/6 67/9/6 69/9/6 70/8/6
f 62/9/3 64/9/3 69/9/3 67/9/3
f 66/8/6 65/8/6 70/8/6 71/8/6
f 63/8/2 62/9/2 67/9/2 68/8/2
f 65/8/1 63/8/1 68/8/1 70/8/1
f 74/9/3 72/9/3 76/9/3 78/9/3
f 64/9/3 58/9/3 72/9/3 74/9/3
f 59/8/1 65/8/1 75/8/1 73/8/1
f 58/9/5 59/8/5 73/8/5 72/9/5
f 76/9/4 77/8/4 79/8/4 78/9/4
f 79/8/1 75/8/1 81/8/1 83/8/1
f 73/8/1 75/8/1 79/8/1 77/8/1
f 72/9/5 73/8/5 77/8/5 76/9/5
f 80/9/3 82/9/3 118/9/3 116/9/3
f 75/8/2 74/9/2 80/9/2 81/8/2
f 74/9/3 78/9/3 82/9/3 80/9/3
f 78/9/4 79/8/4 83/8/4 82/9/4
f 84/9/3 88/9/3 94/9/3 92/9/3
f 59/8/6 58/9/6 84/9/6 85/8/6
f 58/9/3 60/9/3 86/9/3 84/9/3
f 60/9/5 61/13/5 87/13/5 86/9/5
f 89/8/4 88/9/4 90/9/4 91/8/4
f 84/9/3 86/9/3 90/9/3 88/9/3
f 86/9/5 87/13/5 91/13/5 90/9/5
f 87/8/1 85/8/1 89/8/1 91/8/1
f 95/8/1 93/8/1 97/8/1 99/8/1
f 95/8/6 94/9/6 106/9/6 107/8/6
f 89/8/1 85/8/1 93/8/1 95/8/1
f 85/8/2 84/9/2 92/9/2 93/8/2
f 98/9/4 99/8/4 103/8/4 102/9/4
f 94/9/4 95/8/4 99/8/4 98/9/4
f 92/9/3 94/9/3 98/9/3 96/9/3
f 93/8/2 92/9/2 96/9/2 97/8/2
f 101/8/6 100/9/6 102/9/6 103/8/6
f 96/9/3 98/9/3 102/9/3 100/9/3
f 97/8/2 96/9/2 100/9/2 101/8/2
f 99/8/1 97/8/1 101/8/1 103/8/1
f 106/9/3 104/9/3 108/9/3 110/9/3
f 89/8/1 95/8/1 107/8/1 105/8/1
f 94/9/3 88/9/3 104/9/3 106/9/3
f 88/9/5 89/8/5 105/8/5 104/9/5
f 108/9/4 109/8/4 111/8/4 110/9/4
f 104/9/5 105/8/5 109/8/5 108/9/5
f 105/8/1 107/8/1 111/8/1 109/8/1
f 111/8/1 107/8/1 113/8/1 115/8/1
f 113/8/6 112/9/6 114/9/6 115/8/6
f 106/9/3 110/9/3 114/9/3 112/9/3
f 110/9/4 111/8/4 115/8/4 114/9/4
f 107/8/2 106/9/2 112/9/2 113/8/2
f 117/8/6 116/9/6 118/9/6 119/8/6
f 116/9/6 117/8/6 123/8/6 122/9/6
f 83/8/1 81/8/1 117/8/1 119/8/1
f 82/9/4 83/8/4 119/8/4 118/9/4
f 121/8/2 120/9/2 122/9/2 123/8/2
f 81/8/5 80/9/5 120/9/5 121/8/5
f 80/9/3 116/9/3 122/9/3 120/9/3
f 117/8/1 81/8/1 121/8/1 123/8/1
l 22 25
